<?xml version="1.0" encoding="utf-8"?>
<!-- Generator: Adobe Illustrator 18.1.1, SVG Export Plug-In . SVG Version: 6.00 Build 0)  -->
<svg version="1.2" baseProfile="tiny" id="Layer_1" xmlns="http://www.w3.org/2000/svg" xmlns:xlink="http://www.w3.org/1999/xlink"
	 x="0px" y="0px" viewBox="-378 260 202 42" xml:space="preserve">
<g>
	<linearGradient id="SVGID_1_" gradientUnits="userSpaceOnUse" x1="-362.1972" y1="273.6597" x2="-337.3781" y2="273.6597">
		<stop  offset="0" style="stop-color:#FFF23A"/>
		<stop  offset="3.396468e-002" style="stop-color:#FEE62D"/>
		<stop  offset="9.916212e-002" style="stop-color:#FED41A"/>
		<stop  offset="0.1663" style="stop-color:#FDC90F"/>
		<stop  offset="0.2379" style="stop-color:#FDC60B"/>
		<stop  offset="0.4356" style="stop-color:#F28F3F"/>
		<stop  offset="0.5901" style="stop-color:#ED693C"/>
		<stop  offset="1" style="stop-color:#E83E39"/>
	</linearGradient>
	<path fill="url(#SVGID_1_)" d="M-340,274.2c-0.3,5.2-4.6,9.3-9.8,9.3c-5.4,0-9.8-4.4-9.8-9.8s4.4-9.8,9.8-9.8v-2.6
		c-6.9,0-12.4,5.6-12.4,12.4s5.6,12.4,12.4,12.4c6.7,0,12.1-5.3,12.4-11.8H-340z"/>
	<linearGradient id="SVGID_2_" gradientUnits="userSpaceOnUse" x1="-362.1972" y1="292.1608" x2="-337.3647" y2="292.1608">
		<stop  offset="0" style="stop-color:#FFF23A"/>
		<stop  offset="3.396468e-002" style="stop-color:#FEE62D"/>
		<stop  offset="9.916212e-002" style="stop-color:#FED41A"/>
		<stop  offset="0.1663" style="stop-color:#FDC90F"/>
		<stop  offset="0.2379" style="stop-color:#FDC60B"/>
		<stop  offset="0.4356" style="stop-color:#F28F3F"/>
		<stop  offset="0.5901" style="stop-color:#ED693C"/>
		<stop  offset="1" style="stop-color:#E83E39"/>
	</linearGradient>
	<path fill="url(#SVGID_2_)" d="M-340,295.9c0,1.4-0.3,2.7-0.8,3.8l2.4,1c0.6-1.5,1-3.1,1-4.8c0-6.9-5.6-12.4-12.4-12.4
		s-12.4,5.6-12.4,12.4h2.6c0-5.4,4.4-9.8,9.8-9.8S-340,290.5-340,295.9z"/>
	<linearGradient id="SVGID_3_" gradientUnits="userSpaceOnUse" x1="-346.5655" y1="275.4727" x2="-338.581" y2="275.4727">
		<stop  offset="0" style="stop-color:#FFF23A"/>
		<stop  offset="3.396468e-002" style="stop-color:#FEE62D"/>
		<stop  offset="9.916212e-002" style="stop-color:#FED41A"/>
		<stop  offset="0.1663" style="stop-color:#FDC90F"/>
		<stop  offset="0.2379" style="stop-color:#FDC60B"/>
		<stop  offset="0.4356" style="stop-color:#F28F3F"/>
		<stop  offset="0.5901" style="stop-color:#ED693C"/>
		<stop  offset="1" style="stop-color:#E83E39"/>
	</linearGradient>
	<path fill="url(#SVGID_3_)" d="M-338.6,274.2c0,0,0.1,1.5-1.1,2.5h-6.9v-2.5"/>
</g>
<polygon fill="#F9EC31" points="-346.6,273.7 -342,271.1 -337.4,273.7 "/>
<path fill="#FFFFFF" d="M-346.6,273.1v1.1h2v-1.1H-346.6z M-344.7,274.1h-1.7v-0.9h1.7V274.1z"/>
<path fill="#FFFFFF" d="M-339.4,273.1v1.1h2v-1.1H-339.4z M-337.5,274.1h-1.7v-0.9h1.7V274.1z"/>
<polygon fill="#37B34A" points="-345.5,273.1 -342,271.1 -338.4,273.1 -342,271.1 "/>
<polygon fill="#37B34A" points="-343.7,272.2 -342,271.2 -340.2,272.2 -342,271.2 "/>
<polyline fill="#37B34A" points="-337.4,273.7 -339.2,273.7 -339.2,273.2 -338.1,273.2 "/>
<polyline fill="#37B34A" points="-344.7,273.2 -344.7,273.7 -346.6,273.7 -345.8,273.2 "/>
<g>
	<rect x="-333" y="261" fill="#EC1C24" width="0.2" height="39.5"/>
	<rect x="-332.6" y="261" fill="#EC1C24" width="0.2" height="39.5"/>
</g>
<g>
	<path fill="#EC1C24" d="M-312.6,276.4l-2,1.9c-0.4-0.7-1-1.3-1.6-1.7c-0.6-0.4-1.3-0.5-2-0.5c-1.1,0-2.1,0.4-2.9,1.3
		c-0.8,0.8-1.2,1.8-1.2,3c0,1.2,0.4,2.3,1.2,3.1c0.8,0.9,1.8,1.3,3,1.3c0.6,0,1.2-0.2,1.8-0.5c0.6-0.3,1.1-0.9,1.4-1.8h-3.4v-2.8
		h6.6v1.8c0,1-0.3,2-1,3.1c-0.7,1.1-1.5,1.9-2.6,2.4c-1.1,0.5-2.1,0.8-3.2,0.8c-2,0-3.6-0.7-5-2.1c-1.4-1.4-2-3.2-2-5.3
		c0-2,0.7-3.7,2.1-5.1c1.4-1.4,3.1-2.1,5-2.1C-315.9,273.1-314,274.2-312.6,276.4z"/>
	<path fill="#EC1C24" d="M-304.5,273.3h2.4l5.8,14.3h-3.1l-1.1-2.8l-9.7,2.8L-304.5,273.3z M-303.3,277.9l-1.7,4.2h3.4L-303.3,277.9
		z"/>
	<path fill="#EC1C24" d="M-294.2,273.3h4.9c2.1,0,3.8,0.7,5,2c1.3,1.3,1.9,3,1.9,5.2c0,2.2-0.7,3.9-2,5.2c-1.3,1.3-3.1,1.9-5.2,1.9
		h-4.6V273.3z M-291.1,276v8.8h1.2c1.3,0,2.3-0.3,3.1-1c0.8-0.7,1.2-1.8,1.2-3.4c0-0.9-0.2-1.8-0.6-2.5c-0.4-0.7-1-1.2-1.7-1.5
		c-0.7-0.3-1.5-0.4-2.1-0.4H-291.1z"/>
	<path fill="#EC1C24" d="M-276.6,273.3h2.4l5.8,14.3h-3.1l-1.1-2.8l-9.7,2.8L-276.6,273.3z M-275.4,277.9l-1.7,4.2h3.4L-275.4,277.9
		z"/>
	<path fill="#EC1C24" d="M-266.3,273.3h4.9c2.1,0,3.8,0.7,5,2c1.3,1.3,1.9,3,1.9,5.2c0,2.2-0.7,3.9-2,5.2c-1.3,1.3-3.1,1.9-5.2,1.9
		h-4.6V273.3z M-263.1,276v8.8h1.2c1.3,0,2.3-0.3,3.1-1c0.8-0.7,1.2-1.8,1.2-3.4c0-0.9-0.2-1.8-0.6-2.5c-0.4-0.7-1-1.2-1.7-1.5
		c-0.7-0.3-1.5-0.4-2.1-0.4H-263.1z"/>
	<path fill="#EC1C24" d="M-252.1,273.3h3.1v5.5h5.1v-5.5h3.1v14.3h-3.1v-5.7h-5.1v5.7h-3.1V273.3z"/>
	<path fill="#EC1C24" d="M-232.9,273.3h2.4l5.8,14.3h-3.1l-1.1-2.8l-9.7,2.8L-232.9,273.3z M-231.7,277.9l-1.7,4.2h3.4L-231.7,277.9
		z"/>
	<path fill="#EC1C24" d="M-222.6,273.3h4.7c1.4,0,2.6,0.4,3.4,1.1c0.8,0.8,1.2,1.8,1.2,3.1c0,0.7-0.2,1.5-0.6,2.3
		c-0.4,0.8-1.1,1.4-2.1,1.9l4,6h-3.5l-3.7-5.5h-0.3v5.5h-3.1V273.3z M-219.5,275.8v3.7h0.7c1.6,0,2.4-0.7,2.4-2c0-0.5-0.2-1-0.6-1.3
		c-0.4-0.3-1-0.5-1.7-0.5H-219.5z"/>
	<path fill="#EC1C24" d="M-204.6,273.3h2.4l5.8,14.3h-3.1l-1.1-2.8l-9.7,2.8L-204.6,273.3z M-203.4,277.9l-1.7,4.2h3.4L-203.4,277.9
		z"/>
	<path fill="#EC1C24" d="M-195.2,286.8c0-0.2,0.1-0.4,0.2-0.6c0.2-0.2,0.4-0.2,0.6-0.2s0.4,0.1,0.6,0.2c0.2,0.2,0.2,0.4,0.2,0.6
		c0,0.2-0.1,0.4-0.2,0.6c-0.2,0.2-0.4,0.2-0.6,0.2s-0.4-0.1-0.6-0.2C-195.1,287.2-195.2,287-195.2,286.8z"/>
	<g>
		<path fill="#EC1C24" d="M-189.5,284.8h1.1c0.2,0.4,0.3,0.7,0.3,1c0,0.6-0.2,1-0.6,1.4c-0.4,0.4-0.8,0.6-1.4,0.6
			c-0.6,0-1-0.2-1.4-0.5c-0.4-0.4-0.6-0.8-0.6-1.4c0-0.4,0.1-0.7,0.3-1.1h1.1c-0.2,0.3-0.2,0.6-0.2,0.9c0,0.3,0.1,0.5,0.2,0.6
			c0.2,0.2,0.4,0.2,0.6,0.2c0.3,0,0.5-0.1,0.6-0.2c0.2-0.2,0.2-0.4,0.2-0.6C-189.3,285.5-189.3,285.1-189.5,284.8z"/>
		<path fill="#EC1C24" d="M-190.1,284c-0.6,0-1.1-0.2-1.4-0.6c-0.4-0.4-0.6-0.9-0.6-1.4c0-0.5,0.2-1,0.6-1.4
			c0.4-0.4,0.8-0.6,1.4-0.6c0.6,0,1,0.2,1.4,0.6c0.4,0.4,0.6,0.8,0.6,1.4c0,0.6-0.2,1.1-0.6,1.5C-189.1,283.8-189.5,284-190.1,284z
			 M-190.1,281.2c-0.3,0-0.5,0.1-0.7,0.3c-0.2,0.2-0.3,0.4-0.3,0.6c0,0.2,0.1,0.4,0.3,0.6c0.2,0.2,0.4,0.3,0.6,0.3
			c0.3,0,0.5-0.1,0.7-0.2c0.2-0.2,0.3-0.4,0.3-0.6c0-0.2-0.1-0.4-0.3-0.6C-189.6,281.2-189.8,281.2-190.1,281.2z"/>
		<path fill="#EC1C24" d="M-192,277.9h0.6c0-0.1-0.1-0.1-0.2-0.2c-0.1-0.1-0.2-0.2-0.3-0.3c-0.1-0.1-0.1-0.2-0.2-0.3
			c0-0.1-0.1-0.3-0.1-0.4c0-0.2,0.1-0.4,0.2-0.6c0.1-0.2,0.3-0.4,0.7-0.5c-0.3-0.2-0.5-0.5-0.6-0.7c-0.1-0.2-0.2-0.4-0.2-0.6
			c0-0.3,0.1-0.6,0.4-0.9c0.3-0.2,0.6-0.4,1-0.4h2.4v1.1h-2.1c-0.2,0-0.4,0.1-0.5,0.2c-0.1,0.1-0.2,0.3-0.2,0.4
			c0,0.2,0.1,0.4,0.2,0.5c0.2,0.1,0.4,0.2,0.6,0.2h2v1.1h-2.1c-0.2,0-0.4,0.1-0.6,0.2c-0.2,0.1-0.2,0.3-0.2,0.4
			c0,0.2,0.1,0.4,0.2,0.5c0.2,0.1,0.4,0.2,0.6,0.2h2v1.1h-3.8V277.9z"/>
	</g>
</g>
</svg>
