<?xml version="1.0" encoding="utf-8"?>
<!-- Generator: Adobe Illustrator 18.1.1, SVG Export Plug-In . SVG Version: 6.00 Build 0)  -->
<svg version="1.1" id="Layer_1" xmlns="http://www.w3.org/2000/svg" xmlns:xlink="http://www.w3.org/1999/xlink" x="0px" y="0px"
	 viewBox="0 0 1000 1000" enable-background="new 0 0 1000 1000" xml:space="preserve">
<g display="none">
</g>
<g>
	<linearGradient id="SVGID_1_" gradientUnits="userSpaceOnUse" x1="288.3961" y1="419.9871" x2="372.4057" y2="419.9871">
		<stop  offset="0" style="stop-color:#FFF33B"/>
		<stop  offset="5.037888e-002" style="stop-color:#FFE029"/>
		<stop  offset="0.1103" style="stop-color:#FFD218"/>
		<stop  offset="0.1721" style="stop-color:#FEC90F"/>
		<stop  offset="0.2379" style="stop-color:#FDC70C"/>
		<stop  offset="0.4356" style="stop-color:#F3903F"/>
		<stop  offset="0.5901" style="stop-color:#ED683C"/>
		<stop  offset="1" style="stop-color:#E93E3A"/>
	</linearGradient>
	<path fill="url(#SVGID_1_)" d="M363.6,421.9c-1,17.5-15.5,31.4-33.2,31.4c-18.4,0-33.3-14.9-33.3-33.3c0-18.4,14.9-33.3,33.3-33.3
		V378c-23.2,0-42,18.8-42,42s18.8,42,42,42c22.6,0,41-17.8,42-40.1H363.6z"/>
	<linearGradient id="SVGID_2_" gradientUnits="userSpaceOnUse" x1="288.3961" y1="482.6112" x2="372.4512" y2="482.6112">
		<stop  offset="0" style="stop-color:#FFF33B"/>
		<stop  offset="5.037888e-002" style="stop-color:#FFE029"/>
		<stop  offset="0.1103" style="stop-color:#FFD218"/>
		<stop  offset="0.1721" style="stop-color:#FEC90F"/>
		<stop  offset="0.2379" style="stop-color:#FDC70C"/>
		<stop  offset="0.4356" style="stop-color:#F3903F"/>
		<stop  offset="0.5901" style="stop-color:#ED683C"/>
		<stop  offset="1" style="stop-color:#E93E3A"/>
	</linearGradient>
	<path fill="url(#SVGID_2_)" d="M363.7,495.4c0,4.6-0.9,9-2.6,13l8.1,3.4c2.1-5,3.3-10.6,3.3-16.4c0-23.2-18.8-42-42-42
		c-23.2,0-42,18.8-42,42h8.8c0-18.4,14.9-33.3,33.3-33.3S363.7,477.1,363.7,495.4z"/>
	<linearGradient id="SVGID_3_" gradientUnits="userSpaceOnUse" x1="341.3076" y1="426.1241" x2="368.3342" y2="426.1241">
		<stop  offset="0" style="stop-color:#FFF33B"/>
		<stop  offset="5.037888e-002" style="stop-color:#FFE029"/>
		<stop  offset="0.1103" style="stop-color:#FFD218"/>
		<stop  offset="0.1721" style="stop-color:#FEC90F"/>
		<stop  offset="0.2379" style="stop-color:#FDC70C"/>
		<stop  offset="0.4356" style="stop-color:#F3903F"/>
		<stop  offset="0.5901" style="stop-color:#ED683C"/>
		<stop  offset="1" style="stop-color:#E93E3A"/>
	</linearGradient>
	<path fill="url(#SVGID_3_)" d="M368.3,421.9c0,0,0.3,5-3.8,8.4h-23.3v-8.4"/>
</g>
<polygon fill="#F9ED32" points="341.3,420 356.9,411.2 372.5,420 "/>
<path fill="#FFFFFF" d="M341.3,418v3.9h6.7V418H341.3z M347.5,421.5h-5.7v-3h5.7V421.5z"/>
<path fill="#FFFFFF" d="M365.7,418v3.9h6.7V418H365.7z M371.9,421.5h-5.7v-3h5.7V421.5z"/>
<polygon fill="#39B54A" points="344.8,418 356.9,411.4 369,418 356.9,411.2 "/>
<polygon fill="#39B54A" points="351,415 356.9,411.8 362.8,415 356.9,411.7 "/>
<polyline fill="#39B54A" points="372.5,420 366.2,420 366.2,418.5 369.8,418.5 "/>
<polyline fill="#39B54A" points="347.5,418.5 347.5,420 341.3,420 343.9,418.5 "/>
<g>
	<rect x="387.2" y="377.1" fill="#ED1C24" width="0.8" height="133.9"/>
	<rect x="388.7" y="377.1" fill="#ED1C24" width="0.8" height="133.9"/>
</g>
<g>
	<path fill="#ED1C24" d="M456.2,429.1l-6.9,6.5c-1.4-2.5-3.2-4.4-5.4-5.6c-2.1-1.2-4.4-1.9-6.7-1.9c-3.8,0-7.1,1.4-9.9,4.3
		c-2.8,2.9-4.2,6.3-4.2,10.2c0,4.1,1.4,7.7,4.2,10.6c2.8,2.9,6.1,4.3,10.1,4.3c2.1,0,4.2-0.5,6.2-1.6c2-1.1,3.6-3.1,4.8-6.1h-11.5
		v-9.4h22.3v6.3c0,3.2-1.1,6.7-3.3,10.4c-2.2,3.7-5.1,6.4-8.7,8.1c-3.6,1.7-7.3,2.6-10.9,2.6c-6.7,0-12.3-2.4-16.9-7.3
		c-4.6-4.8-6.9-10.8-6.9-17.9c0-6.8,2.4-12.5,7.1-17.3c4.7-4.8,10.4-7.2,17.1-7.2C445.1,418,451.6,421.7,456.2,429.1z"/>
	<path fill="#ED1C24" d="M483.8,418.6h8.1l19.7,48.4h-10.5l-3.9-9.5l-32.8,9.5L483.8,418.6z M487.8,434.5l-5.7,14.3h11.5
		L487.8,434.5z"/>
	<path fill="#ED1C24" d="M518.7,418.6h16.5c7,0,12.7,2.2,17,6.7c4.3,4.4,6.4,10.3,6.4,17.6c0,7.3-2.2,13.1-6.6,17.5
		c-4.4,4.4-10.3,6.6-17.7,6.6h-15.6V418.6z M529.2,427.8v29.9h4.1c4.3,0,7.8-1.2,10.5-3.5c2.7-2.3,4.1-6.2,4.1-11.7
		c0-3.2-0.7-6-2-8.4c-1.3-2.4-3.2-4.1-5.8-5s-4.9-1.3-7.2-1.3H529.2z"/>
	<path fill="#ED1C24" d="M578.3,418.6h8.1l19.7,48.4h-10.5l-3.9-9.5l-32.8,9.5L578.3,418.6z M582.3,434.5l-5.7,14.3h11.5
		L582.3,434.5z"/>
	<path fill="#ED1C24" d="M613.2,418.6h16.5c7,0,12.7,2.2,17,6.7c4.3,4.4,6.4,10.3,6.4,17.6c0,7.3-2.2,13.1-6.6,17.5
		c-4.4,4.4-10.3,6.6-17.7,6.6h-15.6V418.6z M623.7,427.8v29.9h4.1c4.3,0,7.8-1.2,10.5-3.5c2.7-2.3,4.1-6.2,4.1-11.7
		c0-3.2-0.7-6-2-8.4c-1.3-2.4-3.2-4.1-5.8-5c-2.5-0.9-4.9-1.3-7.2-1.3H623.7z"/>
	<path fill="#ED1C24" d="M661.1,418.6h10.4v18.6h17.1v-18.6h10.4V467h-10.4v-19.2h-17.1V467h-10.4V418.6z"/>
	<path fill="#ED1C24" d="M725.9,418.6h8.1l19.7,48.4h-10.5l-3.9-9.5l-32.8,9.5L725.9,418.6z M730,434.5l-5.7,14.3h11.5L730,434.5z"
		/>
	<path fill="#ED1C24" d="M760.9,418.6h15.9c4.8,0,8.7,1.3,11.5,3.8c2.8,2.6,4.2,6,4.2,10.3c0,2.5-0.6,5.1-1.9,7.7
		c-1.3,2.7-3.7,4.8-7.1,6.3L797,467h-12l-12.5-18.7h-1.2V467h-10.4V418.6z M771.4,427.3v12.6h2.3c5.4,0,8.2-2.2,8.2-6.7
		c0-1.8-0.7-3.3-2.1-4.3c-1.4-1.1-3.4-1.6-5.9-1.6H771.4z"/>
	<path fill="#ED1C24" d="M821.8,418.6h8.1l19.7,48.4h-10.5l-3.9-9.5l-32.8,9.5L821.8,418.6z M825.8,434.5l-5.7,14.3h11.5
		L825.8,434.5z"/>
	<path fill="#ED1C24" d="M853.8,464.5c0-0.8,0.3-1.4,0.8-2c0.6-0.6,1.2-0.8,2-0.8c0.8,0,1.4,0.3,2,0.8c0.6,0.6,0.8,1.2,0.8,2
		c0,0.8-0.3,1.4-0.8,2c-0.6,0.6-1.2,0.8-2,0.8c-0.8,0-1.4-0.3-2-0.8C854.1,465.9,853.8,465.2,853.8,464.5z"/>
	<g>
		<path fill="#ED1C24" d="M873,457.6h3.8c0.6,1.3,0.9,2.4,0.9,3.3c0,1.9-0.6,3.6-1.9,4.8c-1.3,1.3-2.9,1.9-4.8,1.9
			c-1.9,0-3.5-0.6-4.8-1.8c-1.3-1.2-1.9-2.7-1.9-4.6c0-1.3,0.3-2.5,0.9-3.7h3.6c-0.5,1.1-0.8,2.1-0.8,3.1c0,0.9,0.3,1.5,0.8,2.1
			c0.5,0.5,1.2,0.8,2.1,0.8c0.8,0,1.5-0.3,2.1-0.8c0.5-0.5,0.8-1.2,0.8-2.1C873.8,459.9,873.5,458.9,873,457.6z"/>
		<path fill="#ED1C24" d="M871.1,454.9c-2,0-3.6-0.6-4.9-1.9c-1.3-1.3-1.9-2.9-1.9-4.9c0-1.8,0.6-3.4,1.9-4.6
			c1.3-1.3,2.9-1.9,4.8-1.9c1.9,0,3.5,0.6,4.8,1.9c1.3,1.3,1.9,2.8,1.9,4.7c0,2.1-0.7,3.8-2,5C874.4,454.3,872.8,454.9,871.1,454.9z
			 M871.1,445.4c-0.9,0-1.6,0.3-2.3,0.9c-0.6,0.6-1,1.2-1,2c0,0.8,0.3,1.5,0.9,2c0.6,0.6,1.3,0.9,2.2,0.9c0.9,0,1.7-0.3,2.4-0.8
			s1-1.2,1-2c0-0.8-0.3-1.4-1-2S871.9,445.4,871.1,445.4z"/>
		<path fill="#ED1C24" d="M864.6,434.3h2.1c-0.1-0.2-0.3-0.4-0.7-0.8c-0.3-0.3-0.6-0.7-0.9-1c-0.2-0.3-0.4-0.7-0.6-1.2
			c-0.1-0.5-0.2-0.9-0.2-1.2c0-0.6,0.2-1.2,0.6-1.9c0.4-0.7,1.1-1.3,2.2-1.7c-1-0.8-1.7-1.6-2.2-2.3c-0.4-0.8-0.7-1.5-0.7-2.1
			c0-1.2,0.5-2.2,1.4-3c1-0.8,2.1-1.2,3.6-1.2h8.2v3.8h-7.1c-0.7,0-1.3,0.2-1.8,0.6c-0.5,0.4-0.7,0.9-0.7,1.4c0,0.7,0.3,1.2,0.8,1.7
			c0.5,0.5,1.2,0.7,2,0.7h6.9v3.8h-7c-0.7,0-1.4,0.2-1.9,0.6c-0.5,0.4-0.8,0.9-0.8,1.4c0,0.7,0.3,1.2,0.8,1.7s1.2,0.7,2,0.7h6.7v3.9
			h-12.9V434.3z"/>
	</g>
</g>
</svg>
