<?xml version="1.0" encoding="utf-8"?>
<!-- Generator: Adobe Illustrator 18.1.1, SVG Export Plug-In . SVG Version: 6.00 Build 0)  -->
<svg version="1.2" baseProfile="tiny" id="Layer_1" xmlns="http://www.w3.org/2000/svg" xmlns:xlink="http://www.w3.org/1999/xlink"
	 x="0px" y="0px" viewBox="0 0 960 560" xml:space="preserve">
<g>
	<linearGradient id="SVGID_1_" gradientUnits="userSpaceOnUse" x1="14.4493" y1="243.7342" x2="146.499" y2="243.7342">
		<stop  offset="0" style="stop-color:#FFF23A"/>
		<stop  offset="3.396468e-002" style="stop-color:#FEE62D"/>
		<stop  offset="9.916212e-002" style="stop-color:#FED41A"/>
		<stop  offset="0.1663" style="stop-color:#FDC90F"/>
		<stop  offset="0.2379" style="stop-color:#FDC60B"/>
		<stop  offset="0.4356" style="stop-color:#F28F3F"/>
		<stop  offset="0.5901" style="stop-color:#ED693C"/>
		<stop  offset="1" style="stop-color:#E83E39"/>
	</linearGradient>
	<path fill="url(#SVGID_1_)" d="M132.7,246.8c-1.6,27.5-24.3,49.3-52.2,49.3c-28.9,0-52.3-23.4-52.3-52.3s23.4-52.3,52.3-52.3v-13.8
		c-36.5,0-66.1,29.6-66.1,66.1s29.6,66.1,66.1,66.1c35.5,0,64.4-28,66-63H132.7z"/>
	<linearGradient id="SVGID_2_" gradientUnits="userSpaceOnUse" x1="14.4493" y1="342.1692" x2="146.5706" y2="342.1692">
		<stop  offset="0" style="stop-color:#FFF23A"/>
		<stop  offset="3.396468e-002" style="stop-color:#FEE62D"/>
		<stop  offset="9.916212e-002" style="stop-color:#FED41A"/>
		<stop  offset="0.1663" style="stop-color:#FDC90F"/>
		<stop  offset="0.2379" style="stop-color:#FDC60B"/>
		<stop  offset="0.4356" style="stop-color:#F28F3F"/>
		<stop  offset="0.5901" style="stop-color:#ED693C"/>
		<stop  offset="1" style="stop-color:#E83E39"/>
	</linearGradient>
	<path fill="url(#SVGID_2_)" d="M132.8,362.3c0,7.2-1.5,14.1-4.1,20.4l12.7,5.4c3.4-7.9,5.2-16.6,5.2-25.8
		c0-36.5-29.6-66.1-66.1-66.1s-66.1,29.6-66.1,66.1h13.8c0-28.9,23.4-52.3,52.3-52.3S132.8,333.4,132.8,362.3z"/>
	<linearGradient id="SVGID_3_" gradientUnits="userSpaceOnUse" x1="97.6178" y1="253.3806" x2="140.0993" y2="253.3806">
		<stop  offset="0" style="stop-color:#FFF23A"/>
		<stop  offset="3.396468e-002" style="stop-color:#FEE62D"/>
		<stop  offset="9.916212e-002" style="stop-color:#FED41A"/>
		<stop  offset="0.1663" style="stop-color:#FDC90F"/>
		<stop  offset="0.2379" style="stop-color:#FDC60B"/>
		<stop  offset="0.4356" style="stop-color:#F28F3F"/>
		<stop  offset="0.5901" style="stop-color:#ED693C"/>
		<stop  offset="1" style="stop-color:#E83E39"/>
	</linearGradient>
	<path fill="url(#SVGID_3_)" d="M140.1,246.8c0,0,0.5,7.9-5.9,13.3H97.6v-13.3"/>
</g>
<polygon fill="#F9EC31" points="97.6,243.7 122.1,229.9 146.6,243.7 "/>
<path fill="#FFFFFF" d="M97.6,240.7v6.1h10.6v-6.1H97.6z M107.4,246h-9v-4.7h9V246z"/>
<path fill="#FFFFFF" d="M135.9,240.7v6.1h10.6v-6.1H135.9z M145.7,246h-9v-4.7h9V246z"/>
<polygon fill="#37B34A" points="103.1,240.7 122.1,230.3 141.1,240.7 122.1,229.9 "/>
<polygon fill="#37B34A" points="112.8,235.9 122.1,230.9 131.4,235.9 122.1,230.7 "/>
<polyline fill="#37B34A" points="146.6,243.7 136.7,243.7 136.7,241.4 142.4,241.4 "/>
<polyline fill="#37B34A" points="107.4,241.4 107.4,243.7 97.6,243.7 101.8,241.4 "/>
<g>
	<rect x="169.8" y="176.4" fill="#EC1C24" width="1.3" height="210.4"/>
	<rect x="172.1" y="176.4" fill="#EC1C24" width="1.3" height="210.4"/>
</g>
<g>
	<path fill="#EC1C24" d="M278.2,258.1l-10.9,10.2c-2.3-3.9-5.1-6.9-8.5-8.8c-3.4-1.9-6.9-2.9-10.5-2.9c-5.9,0-11.1,2.3-15.5,6.8
		c-4.4,4.5-6.6,9.8-6.6,16c0,6.5,2.2,12.1,6.6,16.6c4.4,4.5,9.7,6.8,15.8,6.8c3.4,0,6.6-0.8,9.7-2.5c3.1-1.7,5.6-4.9,7.5-9.6h-18
		v-14.8H283v9.8c0,5.1-1.7,10.5-5.2,16.3c-3.5,5.8-8,10.1-13.7,12.7c-5.7,2.7-11.4,4-17.2,4c-10.5,0-19.4-3.8-26.6-11.4
		c-7.2-7.6-10.8-17-10.8-28.2c0-10.6,3.7-19.7,11.1-27.2c7.4-7.5,16.4-11.3,26.8-11.3C260.8,240.6,271.1,246.4,278.2,258.1z"/>
	<path fill="#EC1C24" d="M321.6,241.6h12.7l31,76h-16.5l-6.1-14.9l-51.5,14.9L321.6,241.6z M327.9,266.5l-8.9,22.4h18.1L327.9,266.5
		z"/>
	<path fill="#EC1C24" d="M376.4,241.6h25.9c11.1,0,20,3.5,26.7,10.5c6.8,7,10.1,16.2,10.1,27.6c0,11.5-3.5,20.6-10.4,27.6
		c-7,6.9-16.2,10.4-27.8,10.4h-24.5V241.6z M392.9,256v47h6.5c6.7,0,12.2-1.8,16.6-5.5c4.3-3.7,6.5-9.8,6.5-18.4c0-5-1-9.4-3.1-13.2
		c-2.1-3.8-5.1-6.4-9.1-7.8c-4-1.4-7.7-2.1-11.3-2.1H392.9z"/>
	<path fill="#EC1C24" d="M470.1,241.6h12.7l31,76h-16.5l-6.1-14.9l-51.5,14.9L470.1,241.6z M476.5,266.5l-8.9,22.4h18.1L476.5,266.5
		z"/>
	<path fill="#EC1C24" d="M524.9,241.6h25.9c11.1,0,20,3.5,26.7,10.5c6.8,7,10.1,16.2,10.1,27.6c0,11.5-3.5,20.6-10.4,27.6
		c-7,6.9-16.2,10.4-27.8,10.4h-24.5V241.6z M541.4,256v47h6.5c6.7,0,12.2-1.8,16.6-5.5c4.3-3.7,6.5-9.8,6.5-18.4c0-5-1-9.4-3.1-13.2
		c-2.1-3.8-5.1-6.4-9.1-7.8c-4-1.4-7.7-2.1-11.3-2.1H541.4z"/>
	<path fill="#EC1C24" d="M600.4,241.6h16.4v29.3h26.9v-29.3H660v76h-16.4v-30.2h-26.9v30.2h-16.4V241.6z"/>
	<path fill="#EC1C24" d="M702.2,241.6h12.7l31,76h-16.5l-6.1-14.9l-51.5,14.9L702.2,241.6z M708.5,266.5l-8.9,22.4h18.1L708.5,266.5
		z"/>
	<path fill="#EC1C24" d="M757.2,241.6h25c7.6,0,13.6,2,18.1,6c4.4,4,6.6,9.4,6.6,16.3c0,3.9-1,7.9-3,12.2c-2,4.2-5.8,7.5-11.2,9.9
		l21.3,31.7h-18.8l-19.7-29.4h-1.9v29.4h-16.4V241.6z M773.7,255.2V275h3.5c8.6,0,12.8-3.5,12.8-10.5c0-2.9-1.1-5.1-3.3-6.8
		c-2.2-1.7-5.3-2.5-9.3-2.5H773.7z"/>
	<path fill="#EC1C24" d="M852.8,241.6h12.7l31,76H880l-6.1-14.9l-51.5,14.9L852.8,241.6z M859.2,266.5l-8.9,22.4h18.1L859.2,266.5z"
		/>
	<path fill="#EC1C24" d="M903.2,313.7c0-1.2,0.4-2.3,1.3-3.1c0.9-0.9,1.9-1.3,3.1-1.3s2.3,0.4,3.1,1.3c0.9,0.9,1.3,1.9,1.3,3.1
		c0,1.2-0.4,2.2-1.3,3.1c-0.9,0.9-1.9,1.3-3.1,1.3s-2.3-0.4-3.1-1.3C903.6,315.9,903.2,314.9,903.2,313.7z"/>
	<g>
		<path fill="#EC1C24" d="M933.4,302.9h6c0.9,2.1,1.4,3.8,1.4,5.2c0,3-1,5.6-3,7.6c-2,2-4.5,3.1-7.5,3.1c-3,0-5.5-0.9-7.5-2.8
			s-3-4.3-3-7.2c0-2,0.5-4,1.4-5.9h5.7c-0.8,1.8-1.3,3.4-1.3,4.8c0,1.3,0.4,2.4,1.2,3.3c0.8,0.8,1.9,1.2,3.3,1.2
			c1.3,0,2.4-0.4,3.2-1.2c0.8-0.8,1.2-1.9,1.2-3.2C934.6,306.5,934.2,304.9,933.4,302.9z"/>
		<path fill="#EC1C24" d="M930.3,298.6c-3.1,0-5.7-1-7.6-3c-2-2-3-4.5-3-7.7c0-2.9,1-5.3,3-7.3c2-2,4.5-3,7.5-3c3,0,5.6,1,7.6,3
			c2,2,3,4.4,3,7.4c0,3.3-1.1,5.9-3.2,7.8C935.5,297.7,933.1,298.6,930.3,298.6z M930.3,283.7c-1.4,0-2.6,0.4-3.6,1.3
			c-1,0.9-1.5,1.9-1.5,3.1c0,1.2,0.5,2.3,1.4,3.2c1,0.9,2.1,1.3,3.4,1.3c1.5,0,2.7-0.4,3.7-1.3s1.5-2,1.5-3.2c0-1.2-0.5-2.2-1.5-3.1
			S931.7,283.7,930.3,283.7z"/>
		<path fill="#EC1C24" d="M920.2,266.2h3.2c-0.2-0.3-0.5-0.7-1.1-1.2c-0.5-0.5-1-1.1-1.4-1.6c-0.4-0.5-0.7-1.1-0.9-1.8
			c-0.2-0.7-0.3-1.4-0.3-1.9c0-0.9,0.3-1.9,1-3c0.7-1.1,1.8-2,3.5-2.7c-1.6-1.3-2.7-2.5-3.4-3.7c-0.7-1.2-1-2.3-1-3.4
			c0-1.8,0.8-3.4,2.3-4.7c1.5-1.3,3.4-1.9,5.6-1.9h12.8v6h-11.2c-1.1,0-2.1,0.3-2.8,0.9c-0.8,0.6-1.1,1.3-1.1,2.2
			c0,1,0.4,1.9,1.3,2.7c0.9,0.8,1.9,1.1,3.1,1.1h10.8v6h-10.9c-1.2,0-2.2,0.3-3,0.9c-0.8,0.6-1.2,1.4-1.2,2.2c0,1,0.4,1.9,1.3,2.7
			c0.9,0.8,1.9,1.1,3.2,1.1h10.6v6.1h-20.2V266.2z"/>
	</g>
</g>
</svg>
